# xmcd CD database file
#
# Track frame offsets:
#	182
#	11137
#	23885
#	36975
#	50957
#	63135
#	73942
#	85082
#	99625
#	114910
#	128157
#	142170
#	154700
#	165585
#	179010
#	192865
#	205472
#	217200
#	228180
#	238435
#	251550
#	263720
#
# Disc length: 3650 seconds
#
# Revision: 0
# Processed by: cddbd v1.4PL0 Copyright (c) Steve Scherf et al.
# Submitted via: CDex 1.40Beta9
#
DISCID=4e0e4016
DTITLE=Various Artist - Shout, Brother, Shout!
DYEAR=1994
DGENRE=Blues
TTITLE0=Olds "88" - Rocky Jones and The Texas Jacks
TTITLE1=Rockin' Boogie - Rocky Jones and The Texas Jacks
TTITLE2='51 Boogie - Lonnie Holmes and His Dark Town Boys
TTITLE3=Deep In Love Blues - Lonnie Holmes and His Dark Town Boys
TTITLE4=My Baby - The Four Sharps
TTITLE5=I'm Building A Castle - The Four Sharps
TTITLE6=Hot Fish - Sherman "Blues" Johnson and His Clouds Of Joy
TTITLE7=Sugar Mama - Sherman "Blues" Johnson and His Clouds Of Joy
TTITLE8=Lost In Korea - Sherman "Blues" Johnson and His Clouds Of Joy
TTITLE9=Pretty Baby Blues - Sherman "Blues" Johnson and His Clouds Of Joy
TTITLE10=I Waited Too Long - Beverly White and Her Trio
TTITLE11=Cling To Me, Baby - Beverly White and Her Trio
TTITLE12=I Don't Care - Beverly White and Her Trio
TTITLE13=When I'm With You - Beverly White and Her Trio
TTITLE14=Way Back - Willie Love and His 3 Aces
TTITLE15=Willie Mae - Willie Love and His 3 Aces
TTITLE16=Shout, Brother, Shout! - Willie Love and His 3 Aces
TTITLE17=Hey! Miss Lula - Wally Mercer
TTITLE18=Tightwad - Wally Mercer
TTITLE19=Sad and Blue - Wally Mercer
TTITLE20=Too Old To Get Married - Wally Mercer
TTITLE21=If You Don't Mean Business - Wally Mercer
EXTD=YEAR: 1994 ID3G: 0
EXTT0=
EXTT1=
EXTT2=
EXTT3=
EXTT4=
EXTT5=
EXTT6=
EXTT7=
EXTT8=
EXTT9=
EXTT10=
EXTT11=
EXTT12=
EXTT13=
EXTT14=
EXTT15=
EXTT16=
EXTT17=
EXTT18=
EXTT19=
EXTT20=
EXTT21=
PLAYORDER=
